<?xml version="1.0" standalone="no"?>
<!DOCTYPE svg PUBLIC "-//W3C//DTD SVG 20010904//EN"
 "http://www.w3.org/TR/2001/REC-SVG-20010904/DTD/svg10.dtd">
<svg version="1.0" xmlns="http://www.w3.org/2000/svg"
 width="700.000000pt" height="700.000000pt" viewBox="0 0 700.000000 700.000000"
 preserveAspectRatio="xMidYMid meet">
<metadata>
Created by potrace 1.14, written by Peter Selinger 2001-2017
</metadata>
<g transform="translate(0.000000,700.000000) scale(0.100000,-0.100000)"
fill="#000000" stroke="none">
<path d="M2829 6496 c-2 -2 -40 -6 -84 -10 -44 -3 -91 -8 -105 -11 -14 -3 -42
-7 -62 -10 -166 -21 -493 -118 -673 -200 -27 -12 -72 -33 -100 -45 -131 -60
-347 -192 -480 -295 -115 -89 -115 -90 -104 -150 5 -27 19 -102 30 -165 11
-63 21 -124 23 -135 2 -11 7 -38 11 -60 3 -22 13 -74 20 -115 8 -41 16 -91 19
-110 3 -19 12 -71 20 -115 9 -44 18 -93 21 -110 2 -16 7 -40 9 -52 3 -11 8
-43 12 -70 5 -26 9 -50 9 -53 1 -3 5 -25 9 -50 17 -96 77 -436 82 -465 6 -30
26 -150 45 -260 13 -81 18 -105 24 -135 3 -14 18 -101 35 -195 16 -93 39 -222
50 -285 12 -63 24 -155 27 -205 3 -49 8 -93 12 -97 16 -16 334 -116 471 -148
176 -41 348 -76 470 -95 19 -3 46 -8 60 -10 90 -14 149 -22 230 -30 36 -4 72
-8 80 -10 8 -2 51 -7 95 -10 44 -4 96 -8 115 -10 202 -24 883 -24 1020 -1 14
3 57 7 95 11 39 3 97 10 130 15 33 5 78 12 100 15 91 14 277 59 374 92 164 54
294 124 382 206 l37 33 -24 70 c-49 141 -153 333 -234 429 -43 52 -153 160
-195 190 -22 17 -42 33 -45 36 -9 11 -130 78 -183 103 -75 34 -203 70 -297 84
-93 14 -391 5 -442 -13 -7 -2 -24 -6 -38 -9 -238 -42 -527 -172 -802 -362 -43
-29 -78 -50 -78 -46 1 15 164 211 246 295 47 48 122 118 166 154 l80 66 -34
17 c-18 9 -100 51 -182 94 -167 88 -147 88 -257 9 -194 -139 -372 -263 -378
-263 -3 0 -12 8 -19 18 -7 9 -39 55 -72 101 l-59 83 32 22 c122 83 337 239
337 244 0 4 -79 48 -176 97 -97 50 -178 95 -181 102 -2 6 21 59 52 117 l57
106 176 -91 c98 -51 205 -107 239 -125 34 -19 67 -34 73 -34 5 0 53 30 106 67
53 38 106 75 118 83 121 82 253 182 253 192 1 26 14 154 18 179 5 25 -6 34
-192 144 -108 65 -203 119 -212 122 -9 2 -41 -13 -71 -33 -67 -44 -402 -258
-411 -262 -5 -2 -38 46 -113 167 l-28 43 24 16 c25 18 147 96 266 170 39 25
72 48 72 51 0 4 -53 38 -117 76 -64 39 -125 75 -134 80 -9 6 -34 20 -55 32
-22 12 -45 26 -53 32 -12 7 -2 29 48 115 35 58 67 106 72 106 8 0 144 -79 406
-237 81 -48 85 -49 116 -27 12 8 123 79 247 158 l225 143 -2 51 c-6 173 -169
302 -451 358 -67 13 -393 29 -403 20z"/>
<path d="M3536 5669 l-108 -71 98 -59 c54 -32 99 -57 100 -56 1 1 4 34 7 72 4
39 9 96 13 128 3 31 5 57 3 57 -2 0 -53 -32 -113 -71z"/>
<path d="M3447 4575 c-48 -35 -84 -65 -80 -68 26 -16 143 -77 147 -77 2 0 7
21 10 48 12 97 18 162 14 162 -1 -1 -43 -30 -91 -65z"/>
<path d="M5385 2860 c-11 -18 -143 -91 -234 -131 -202 -87 -552 -167 -846
-193 -132 -12 -209 -18 -272 -21 -87 -5 -538 -5 -623 0 -178 9 -468 32 -512
41 -10 1 -18 0 -18 -3 0 -4 29 -57 150 -268 9 -16 25 -30 36 -31 10 -1 46 -4
79 -8 33 -4 89 -9 125 -12 36 -2 90 -7 120 -10 123 -13 697 -12 835 1 168 16
242 24 275 30 14 3 39 7 55 9 26 4 76 12 177 31 69 13 294 80 372 111 89 35
243 112 279 139 15 11 18 29 19 126 1 108 -3 199 -8 199 -2 0 -6 -4 -9 -10z"/>
<path d="M1687 2693 c2 -70 5 -163 6 -205 2 -43 5 -79 7 -82 4 -3 192 -32 345
-52 22 -3 51 -7 65 -10 14 -2 59 -8 101 -14 41 -6 86 -12 98 -15 39 -7 135
-19 164 -19 26 -1 31 6 87 139 64 148 67 161 48 163 -12 1 -50 7 -168 27 -197
35 -617 142 -741 190 -15 5 -16 -7 -12 -122z"/>
<path d="M1165 2506 c-28 -9 -133 -12 -357 -12 -174 1 -314 -2 -310 -5 4 -4
78 -38 165 -76 152 -67 157 -71 135 -85 -13 -8 -30 -18 -38 -21 -8 -4 -28 -15
-45 -26 -16 -10 -91 -53 -165 -96 -229 -132 -320 -186 -320 -190 0 -2 8 -2 17
0 10 1 54 6 98 10 44 4 87 9 96 10 9 2 52 6 95 10 43 3 86 8 94 10 8 2 49 7
90 10 41 4 87 8 102 11 15 2 30 -1 33 -6 4 -6 29 -22 56 -35 l49 -25 -24 -38
c-35 -56 -314 -481 -349 -531 l-30 -44 445 226 c429 218 446 225 484 217 36
-8 85 -18 124 -24 18 -3 18 -9 1 -111 -7 -44 -15 -91 -17 -105 -5 -32 -13 -80
-18 -105 -2 -11 -6 -41 -10 -66 -4 -25 -9 -57 -11 -70 -23 -143 -55 -342 -60
-374 -3 -23 -7 -52 -10 -65 -4 -19 14 -6 78 57 45 45 123 121 173 170 50 48
202 196 338 328 136 132 251 239 254 238 4 0 52 -4 107 -8 55 -4 103 -9 106
-11 4 -2 10 -23 14 -47 4 -23 9 -49 10 -57 2 -8 6 -37 9 -65 4 -27 11 -77 16
-110 5 -33 12 -78 15 -100 3 -22 8 -51 10 -65 3 -14 7 -43 11 -65 3 -22 7 -51
9 -65 13 -83 25 -161 30 -200 3 -25 10 -70 15 -100 5 -30 12 -75 16 -100 5
-38 9 -62 13 -78 1 -3 20 24 226 328 65 96 151 222 190 280 39 58 118 174 175
258 114 169 93 154 215 154 19 0 44 -1 54 -1 14 -1 91 -99 252 -318 514 -704
530 -725 534 -721 2 1 6 41 10 88 3 47 8 101 10 120 2 19 6 73 10 120 4 47 8
99 10 115 1 17 6 66 9 110 4 44 9 98 11 120 2 22 9 96 15 165 12 143 21 234
23 237 1 1 40 4 87 8 47 4 94 8 106 10 11 2 26 0 33 -4 6 -4 192 -185 412
-402 220 -217 404 -395 409 -397 4 -2 4 14 0 35 -4 21 -11 61 -14 88 -3 28 -8
64 -11 80 -14 76 -25 143 -30 180 -4 22 -8 47 -10 55 -2 8 -7 35 -10 60 -6 43
-8 59 -19 125 -3 17 -12 75 -21 130 -8 55 -17 112 -20 127 -2 15 -1 27 3 26 4
-1 23 2 42 6 19 4 42 8 50 10 8 1 30 6 47 10 29 7 68 -11 365 -162 517 -263
539 -274 544 -270 2 3 -4 16 -14 29 -38 50 -375 570 -371 572 70 46 114 66
137 63 15 -3 63 -8 107 -11 44 -4 87 -8 95 -10 8 -2 49 -7 90 -10 41 -4 89 -8
105 -11 17 -2 58 -6 93 -9 35 -4 72 -8 83 -10 10 -2 19 -2 19 0 0 3 -42 29
-105 65 -16 9 -112 65 -213 123 -101 59 -188 107 -193 107 -5 0 -9 5 -9 10 0
6 -6 10 -12 10 -7 0 -23 8 -36 18 -22 17 -21 18 138 87 88 38 160 72 160 75 0
3 -145 5 -322 4 -242 0 -333 3 -362 13 -22 7 -40 12 -42 11 -1 -2 13 -14 31
-28 18 -14 41 -37 49 -52 88 -146 -192 -293 -749 -393 -98 -17 -280 -44 -340
-50 -33 -4 -70 -8 -82 -10 -12 -2 -57 -6 -100 -10 -43 -3 -91 -8 -108 -10 -16
-2 -70 -7 -120 -10 -49 -4 -110 -8 -135 -10 -302 -25 -1075 -24 -1440 0 -158
11 -219 16 -255 20 -22 2 -69 7 -105 10 -103 8 -278 30 -370 45 -30 5 -73 12
-95 15 -102 14 -350 70 -454 101 -205 62 -348 145 -367 212 -7 26 -8 35 -5 67
0 9 22 36 47 60 25 25 44 45 42 44 -1 -1 -21 -6 -43 -13z"/>
</g>
</svg>
